<svg stroke="#FAED19" width="254" height="79" viewBox="0 0 254 79" fill="none" xmlns="http://www.w3.org/2000/svg">
<path fill-rule="evenodd" clip-rule="evenodd" d="M237.745 53.9576C237.745 53.9576 247.251 46.1507 247.251 39.5C247.251 32.8493 237.745 25.0424 237.745 25.0424C237.745 25.0424 227.84 16.2252 216.42 12.673C193.591 5.57282 161.976 1.16176 127 1.16176C92.0236 1.16176 60.4089 5.57282 37.5804 12.673C30.093 15.0018 20.5179 20.9331 15.6412 24.6066C10.1442 28.7472 6.13527 34.5621 6.13527 39.5C6.13527 44.4379 9.57504 48.5656 15.6412 53.9576C19.5184 57.4041 28.0412 63.3601 37.5804 66.327C60.4089 73.4272 92.0236 77.8382 127 77.8382C161.976 77.8382 193.591 73.4272 216.42 66.327C227.84 62.7748 237.745 53.9576 237.745 53.9576ZM127 79C197.14 79 254 61.3153 254 39.5C254 17.6848 197.14 0 127 0C56.8598 0 0 17.6848 0 39.5C0 61.3153 56.8598 79 127 79Z" fill="white"/>
</svg>
