<svg  width="186" height="62" viewBox="0 0 186 62" fill="none" xmlns="http://www.w3.org/2000/svg">
<path fill-rule="evenodd" clip-rule="evenodd" d="M173.661 42.3465C173.661 42.3465 180.585 36.2195 180.585 31C180.585 25.7805 173.661 19.6535 173.661 19.6535C173.661 19.6535 166.447 12.7337 158.128 9.94591C141.501 4.3736 118.475 0.911765 93 0.911765C67.5251 0.911765 44.4986 4.3736 27.8715 9.94591C22.4181 11.7736 15.4442 16.4285 11.8922 19.3115C7.88851 22.5611 4.9686 27.1247 4.9686 31C4.9686 34.8753 7.47394 38.1148 11.8922 42.3465C14.7162 45.0513 20.9237 49.7256 27.8715 52.0541C44.4986 57.6264 67.5251 61.0882 93 61.0882C118.475 61.0882 141.501 57.6264 158.128 52.0541C166.447 49.2663 173.661 42.3465 173.661 42.3465ZM93 62C144.086 62 185.5 48.1208 185.5 31C185.5 13.8792 144.086 0 93 0C41.9137 0 0.5 13.8792 0.5 31C0.5 48.1208 41.9137 62 93 62Z" fill="white"/>
</svg>
