<svg width="191" height="57" viewBox="0 0 191 57" fill="none" xmlns="http://www.w3.org/2000/svg">
<path d="M38.3607 32.0065C36.7822 32.0065 35.2416 31.7157 33.7387 31.1342V38.0898H29.5698V19.5338H33.7387H38.3607C40.8076 19.5338 42.8505 20.1191 44.4894 21.2897C46.1282 22.4528 46.9476 23.8991 46.9476 25.6285C46.9476 27.4562 46.1282 28.978 44.4894 30.1939C42.8505 31.4023 40.8076 32.0065 38.3607 32.0065ZM33.7387 29.8767C34.8715 30.4658 36.3178 30.7603 38.0775 30.7603C39.2858 30.7603 40.2903 30.3336 41.0908 29.4802C41.8989 28.6193 42.303 27.5468 42.303 26.2629C42.303 24.5637 41.4873 23.1401 39.856 21.9921C38.2247 20.8442 36.1856 20.2702 33.7387 20.2702V29.8767ZM64.9159 38.0898V28.7892H55.1735V38.0898H50.9933L51.0386 27.4184C51.0386 26.2252 51.4313 25.232 52.2167 24.4391C53.0097 23.6385 53.9953 23.2382 55.1735 23.2382V27.9509H64.9159V19.5338H69.0961V38.0898H64.9159ZM48.2631 23.2382V19.5338H55.1735V23.2382H48.2631ZM90.429 38.0898L86.5093 29.8541C86.2903 32.3614 85.554 34.4232 84.3003 36.0394C83.0466 37.6556 81.5324 38.4637 79.7576 38.4637C77.8695 38.4637 76.4572 37.9954 75.5207 37.059C74.5842 36.1225 74.2028 34.8272 74.3765 33.1733C74.5578 31.5193 75.2904 29.669 76.5743 27.6223L81.6041 19.5338H86.0222L94.8357 38.0898H90.429ZM77.8544 27.6223C76.8499 29.4651 76.5856 30.9982 77.0614 32.2217C77.5372 33.4452 78.636 34.0569 80.358 34.0569C81.9213 34.0569 83.2241 33.532 84.2663 32.4823C85.3085 31.4249 85.8447 30.0995 85.8749 28.506L82.0686 20.5081L77.8544 27.6223ZM98.3942 27.4184C98.3942 24.6316 99.7876 23.2382 102.574 23.2382V29.8767C103.707 30.4658 105.154 30.7603 106.913 30.7603C108.122 30.7603 109.126 30.3336 109.927 29.4802C110.735 28.6193 111.139 27.5468 111.139 26.2629C111.139 24.5637 110.323 23.1401 108.692 21.9921C107.061 20.8442 105.021 20.2702 102.574 20.2702V23.2382H95.6641V19.5338H107.196C109.643 19.5338 111.683 20.1191 113.314 21.2897C114.953 22.4528 115.772 23.8991 115.772 25.6285C115.772 26.988 115.289 28.2039 114.322 29.2763C113.355 30.3412 112.075 31.1077 110.482 31.576L115.863 38.0898H110.991L105.916 31.9385C104.678 31.7874 103.564 31.5193 102.574 31.1342V38.0898H98.3942V27.4184ZM136.89 35.7109C134.903 37.5461 132.419 38.4637 129.436 38.4637C126.452 38.4637 123.964 37.5461 121.97 35.7109C119.984 33.8757 118.991 31.5835 118.991 28.8345C118.991 26.0779 119.984 23.7858 121.97 21.9581C123.964 20.1229 126.452 19.2053 129.436 19.2053C132.419 19.2053 134.903 20.1229 136.89 21.9581C138.884 23.7858 139.88 26.0779 139.88 28.8345C139.88 31.5835 138.884 33.8757 136.89 35.7109ZM125.89 21.9128C123.828 21.656 122.378 22.1243 121.54 23.3175C120.709 24.5032 120.766 26.0213 121.71 27.8716C122.654 29.7219 124.247 31.4325 126.49 33.0034C128.748 34.5818 130.908 35.4994 132.97 35.7562C135.039 36.013 136.489 35.5485 137.32 34.3628C138.158 33.1695 138.106 31.6477 137.162 29.7974C136.218 27.9471 134.624 26.2327 132.381 24.6543C130.123 23.0759 127.959 22.162 125.89 21.9128ZM153.147 38.4637C150.685 38.4637 148.457 37.7802 146.464 36.4132C144.47 35.0387 143.239 33.2715 142.771 31.1115H148.435C149.923 33.196 151.935 34.578 154.473 35.2577C156.467 35.8015 158.211 35.7788 159.707 35.1898C160.99 34.6611 161.644 33.8794 161.666 32.8448C161.666 32.15 161.323 31.5647 160.635 31.0889C159.956 30.6055 159.065 30.2354 157.962 29.9787C156.867 29.7219 155.659 29.5029 154.337 29.3216C153.015 29.1328 151.694 28.9327 150.372 28.7212C149.05 28.5022 147.838 28.2416 146.735 27.9395C145.64 27.6375 144.753 27.207 144.073 26.6481C143.394 26.0817 143.054 25.3944 143.054 24.5863C143.054 23.0381 143.903 21.7542 145.603 20.7346C147.309 19.7151 149.435 19.2053 151.981 19.2053C154.36 19.2053 156.531 19.8699 158.494 21.1991C160.466 22.5283 161.738 24.1974 162.312 26.2063H157.112C154.22 23.208 151.482 21.539 148.899 21.1991C147.17 20.965 145.863 21.3615 144.98 22.3886C144.466 22.9928 144.209 23.7254 144.209 24.5863C144.209 25.266 144.549 25.84 145.229 26.3082C145.916 26.7689 146.807 27.1239 147.902 27.3731C148.997 27.6223 150.206 27.8414 151.527 28.0302C152.857 28.2114 154.182 28.4078 155.504 28.6193C156.825 28.8232 158.034 29.0762 159.129 29.3783C160.231 29.6804 161.123 30.1146 161.802 30.681C162.482 31.2399 162.822 31.9234 162.822 32.7315C162.822 34.3703 161.912 35.7373 160.092 36.8324C158.279 37.9199 155.964 38.4637 153.147 38.4637Z" fill="white"/>
<path fill-rule="evenodd" clip-rule="evenodd" d="M178.777 38.9315C178.777 38.9315 185.925 33.2986 185.925 28.5C185.925 23.7014 178.777 18.0685 178.777 18.0685C178.777 18.0685 171.329 11.7068 162.741 9.14382C145.574 4.02089 121.801 0.838235 95.5 0.838235C69.1989 0.838235 45.4256 4.02089 28.2593 9.14382C22.629 10.8241 15.4288 15.1036 11.7617 17.7541C7.62813 20.7417 4.61353 24.9372 4.61353 28.5C4.61353 32.0628 7.20013 35.041 11.7617 38.9315C14.6773 41.4181 21.0861 45.7155 28.2593 47.8562C45.4256 52.9791 69.1989 56.1618 95.5 56.1618C121.801 56.1618 145.574 52.9791 162.741 47.8562C171.329 45.2932 178.777 38.9315 178.777 38.9315ZM95.5 57C148.243 57 191 44.2401 191 28.5C191 12.7599 148.243 0 95.5 0C42.7568 0 0 12.7599 0 28.5C0 44.2401 42.7568 57 95.5 57Z" fill="white"/>
</svg>
