<svg width="284" height="42" viewBox="0 0 284 42" fill="none" xmlns="http://www.w3.org/2000/svg">
<path d="M18.9492 27.8896C15.5475 27.8896 12.2272 27.263 8.98828 26.0098V41H0.00390625V1.00977H8.98828H18.9492C24.2227 1.00977 28.6253 2.27116 32.1572 4.79395C35.6891 7.30046 37.4551 10.4173 37.4551 14.1445C37.4551 18.0833 35.6891 21.363 32.1572 23.9834C28.6253 26.5876 24.2227 27.8896 18.9492 27.8896ZM8.98828 23.2998C11.4297 24.5693 14.5465 25.2041 18.3389 25.2041C20.943 25.2041 23.1077 24.2845 24.833 22.4453C26.5745 20.5898 27.4453 18.2786 27.4453 15.5117C27.4453 11.8496 25.6875 8.78158 22.1719 6.30762C18.6562 3.83366 14.2617 2.59668 8.98828 2.59668V23.2998ZM75.4287 41V20.9561H54.4326V41H45.4238L45.5215 18.002C45.5215 15.4303 46.3678 13.29 48.0605 11.5811C49.7695 9.85579 51.8936 8.99316 54.4326 8.99316V19.1494H75.4287V1.00977H84.4375V41H75.4287ZM39.54 8.99316V1.00977H54.4326V8.99316H39.54ZM129.662 41L121.215 23.251C120.743 28.6546 119.156 33.098 116.454 36.5811C113.752 40.0641 110.489 41.8057 106.664 41.8057C102.595 41.8057 99.5514 40.7965 97.5332 38.7783C95.515 36.7601 94.693 33.9688 95.0674 30.4043C95.458 26.8398 97.0368 22.8522 99.8037 18.4414L110.644 1.00977H120.165L139.159 41H129.662ZM102.562 18.4414C100.398 22.4128 99.8281 25.7168 100.854 28.3535C101.879 30.9902 104.247 32.3086 107.958 32.3086C111.327 32.3086 114.135 31.1774 116.381 28.915C118.627 26.6364 119.783 23.7799 119.848 20.3457L111.645 3.10938L102.562 18.4414ZM146.078 18.002C146.078 11.9961 149.081 8.99316 155.087 8.99316V23.2998C157.528 24.5693 160.645 25.2041 164.438 25.2041C167.042 25.2041 169.206 24.2845 170.932 22.4453C172.673 20.5898 173.544 18.2786 173.544 15.5117C173.544 11.8496 171.786 8.78158 168.271 6.30762C164.755 3.83366 160.36 2.59668 155.087 2.59668V8.99316H140.194V1.00977H165.048C170.321 1.00977 174.716 2.27116 178.231 4.79395C181.763 7.30046 183.529 10.4173 183.529 14.1445C183.529 17.0742 182.488 19.6947 180.404 22.0059C178.321 24.3008 175.562 25.9528 172.128 26.9619L183.725 41H173.227L162.289 27.7432C159.62 27.4176 157.219 26.8398 155.087 26.0098V41H146.078V18.002ZM228.29 35.873C224.009 39.8281 218.655 41.8057 212.226 41.8057C205.797 41.8057 200.434 39.8281 196.137 35.873C191.856 31.918 189.716 26.9782 189.716 21.0537C189.716 15.113 191.856 10.1732 196.137 6.23438C200.434 2.2793 205.797 0.301758 212.226 0.301758C218.655 0.301758 224.009 2.2793 228.29 6.23438C232.587 10.1732 234.735 15.113 234.735 21.0537C234.735 26.9782 232.587 31.918 228.29 35.873ZM204.584 6.13672C200.141 5.58333 197.016 6.59245 195.209 9.16406C193.419 11.7194 193.541 14.9909 195.575 18.9785C197.61 22.9661 201.044 26.6527 205.878 30.0381C210.744 33.4398 215.399 35.4173 219.843 35.9707C224.302 36.5241 227.427 35.5231 229.218 32.9678C231.024 30.3962 230.91 27.1165 228.876 23.1289C226.841 19.1413 223.407 15.4466 218.573 12.0449C213.707 8.64323 209.044 6.67383 204.584 6.13672ZM262.577 41.8057C257.271 41.8057 252.47 40.3327 248.173 37.3867C243.876 34.4245 241.223 30.6159 240.214 25.9609H252.421C255.627 30.4531 259.965 33.4316 265.434 34.8965C269.73 36.0684 273.49 36.0195 276.713 34.75C279.48 33.6107 280.888 31.9261 280.937 29.6963C280.937 28.1989 280.196 26.9375 278.715 25.9121C277.25 24.8704 275.329 24.0729 272.953 23.5195C270.593 22.9661 267.989 22.4941 265.141 22.1035C262.292 21.6966 259.444 21.2653 256.596 20.8096C253.747 20.3376 251.135 19.776 248.759 19.125C246.399 18.474 244.486 17.5462 243.021 16.3418C241.557 15.1211 240.824 13.64 240.824 11.8984C240.824 8.56185 242.655 5.79492 246.317 3.59766C249.996 1.40039 254.577 0.301758 260.062 0.301758C265.189 0.301758 269.869 1.73405 274.101 4.59863C278.349 7.46322 281.091 11.0602 282.328 15.3896H271.122C264.888 8.92806 258.988 5.33105 253.422 4.59863C249.695 4.09408 246.879 4.94857 244.975 7.16211C243.868 8.46419 243.314 10.043 243.314 11.8984C243.314 13.3633 244.047 14.6003 245.512 15.6094C246.993 16.6022 248.913 17.3672 251.273 17.9043C253.633 18.4414 256.238 18.9134 259.086 19.3203C261.951 19.7109 264.807 20.1341 267.655 20.5898C270.504 21.0293 273.108 21.5745 275.468 22.2256C277.844 22.8766 279.765 23.8125 281.229 25.0332C282.694 26.2376 283.427 27.7106 283.427 29.4521C283.427 32.984 281.465 35.93 277.543 38.29C273.637 40.6338 268.648 41.8057 262.577 41.8057Z" fill="white"/>
</svg>
