<svg width="251" height="81" viewBox="0 0 251 81" fill="none" xmlns="http://www.w3.org/2000/svg">
<path d="M32.2735 64.9469L37.9094 56.8081L39.1297 57.151L39.7013 67.0342L38.7439 66.7651L38.1845 57.4391L38.5474 57.541L33.2309 65.216L32.2735 64.9469ZM34.2701 63.1516L34.5128 62.2881L39.1685 63.5963L38.9258 64.4599L34.2701 63.1516Z" fill="white"/>
<path d="M41.946 67.5973L43.5678 60.7672L46.3821 61.4354C46.5254 61.4695 46.6963 61.519 46.8946 61.5839C47.0972 61.6498 47.2815 61.727 47.4476 61.8154C47.8072 62.0077 48.066 62.2874 48.2238 62.6544C48.3858 63.0225 48.4147 63.4257 48.3106 63.8642C48.2525 64.1087 48.1625 64.319 48.0406 64.4949C47.9239 64.6676 47.7815 64.8075 47.6136 64.9146C47.5333 64.9712 47.4487 65.018 47.3598 65.0548C47.2719 65.0873 47.1881 65.112 47.1085 65.1287C47.2374 65.186 47.3688 65.2796 47.5028 65.4094C47.7133 65.6108 47.8527 65.8488 47.9211 66.1233C47.9906 66.3937 47.9842 66.7017 47.9021 67.0475C47.791 67.5154 47.5887 67.8705 47.2951 68.1125C47.0016 68.3546 46.6542 68.4859 46.2529 68.5064C46.0733 68.5127 45.8829 68.4987 45.6817 68.4643C45.4848 68.4309 45.2999 68.3937 45.127 68.3526L41.946 67.5973ZM43.0697 67.029L45.2705 67.5516C45.359 67.5726 45.4722 67.5928 45.6101 67.6122C45.7491 67.6274 45.8742 67.6348 45.9856 67.6346C46.2494 67.6304 46.4607 67.547 46.6196 67.3843C46.7837 67.2184 46.8928 67.0216 46.9469 66.7939C47.0179 66.4946 46.9875 66.229 46.8554 65.9972C46.7286 65.7622 46.5248 65.5891 46.2439 65.4779C46.1519 65.4338 46.0537 65.3971 45.9493 65.3679C45.8449 65.3386 45.7506 65.314 45.6662 65.294L43.5983 64.8029L43.0697 67.029ZM43.7875 64.0061L45.6974 64.4596C45.807 64.4856 45.9307 64.5083 46.0687 64.5277C46.2118 64.5439 46.3385 64.545 46.4487 64.5311C46.6859 64.5073 46.8772 64.4146 47.0224 64.2531C47.1719 64.0926 47.2726 63.9028 47.3247 63.6835C47.3817 63.4432 47.3749 63.2189 47.3041 63.0106C47.2375 62.8033 47.101 62.6372 46.8946 62.5125C46.7558 62.4216 46.5989 62.351 46.4238 62.3005C46.253 62.251 46.1444 62.2208 46.098 62.2098L44.3146 61.7863L43.7875 64.0061Z" fill="white"/>
<path d="M51.1853 69.4804L52.4309 63.4721L49.9932 62.9667L50.1727 62.1012L55.9836 63.3058L55.8042 64.1714L53.3665 63.6661L52.1209 69.6743L51.1853 69.4804Z" fill="white"/>
<path d="M58.7406 71.3401C58.0536 71.2186 57.4944 70.9591 57.0631 70.5616C56.6317 70.164 56.3346 69.667 56.1716 69.0705C56.0087 68.474 55.9902 67.8195 56.1163 67.1069C56.2446 66.3815 56.4893 65.7691 56.8505 65.2697C57.2116 64.7703 57.6622 64.4121 58.2023 64.1952C58.7473 63.9747 59.3569 63.9241 60.0311 64.0434C60.7224 64.1656 61.2837 64.4255 61.7151 64.823C62.1515 65.2171 62.449 65.7119 62.6077 66.3077C62.7714 66.8999 62.7902 67.5523 62.6642 68.2649C62.5359 68.9903 62.2929 69.6053 61.9352 70.1097C61.5783 70.6098 61.1274 70.9701 60.5823 71.1906C60.0373 71.411 59.4234 71.4609 58.7406 71.3401ZM58.9002 70.4376C59.6683 70.5735 60.285 70.4207 60.7503 69.9793C61.2164 69.5337 61.5215 68.9034 61.6657 68.0883C61.8136 67.252 61.7414 66.5527 61.4492 65.9906C61.1612 65.4292 60.6353 65.0809 59.8715 64.9459C59.3552 64.8545 58.9077 64.8964 58.5291 65.0715C58.1555 65.243 57.8489 65.5211 57.6093 65.9055C57.3747 66.2865 57.2099 66.7458 57.1148 67.2835C56.9676 68.1155 57.0415 68.8173 57.3365 69.3888C57.6323 69.9559 58.1535 70.3055 58.9002 70.4376Z" fill="white"/>
<path d="M66.4469 72.6033C65.8084 72.5073 65.2926 72.2655 64.8995 71.8778C64.5071 71.4859 64.2388 70.9964 64.0947 70.4095C63.9513 69.8183 63.9314 69.1777 64.035 68.4878C64.1406 67.785 64.3481 67.1764 64.6577 66.662C64.9721 66.144 65.376 65.7599 65.8693 65.5097C66.3626 65.2596 66.9349 65.1834 67.5863 65.2813C68.2205 65.3765 68.7406 65.619 69.1465 66.0086C69.5525 66.3983 69.8339 66.8875 69.9909 67.4763C70.1521 68.0658 70.1809 68.7055 70.0772 69.3955C69.9729 70.0897 69.7572 70.6948 69.4299 71.2109C69.1026 71.727 68.6852 72.1135 68.1777 72.3703C67.6709 72.6228 67.094 72.7005 66.4469 72.6033ZM62.8885 75.0265L64.3948 64.999L65.2433 65.1265L64.4582 70.3524L64.5611 70.3678L63.8398 75.1694L62.8885 75.0265ZM66.4828 71.7082C66.967 71.7809 67.3882 71.7193 67.7463 71.5233C68.1044 71.3273 68.3942 71.0313 68.6159 70.6351C68.8424 70.2353 68.9953 69.7719 69.0745 69.2448C69.153 68.722 69.1446 68.2387 69.0491 67.795C68.9536 67.3512 68.7614 66.9827 68.4724 66.6895C68.1877 66.397 67.7968 66.2134 67.2997 66.1387C66.8155 66.066 66.395 66.1233 66.0382 66.3107C65.6856 66.4988 65.3986 66.7909 65.1769 67.187C64.9559 67.5789 64.8046 68.0469 64.7228 68.5911C64.6423 69.1268 64.6495 69.6186 64.7443 70.0667C64.8398 70.5105 65.0302 70.8765 65.3156 71.1647C65.6009 71.453 65.99 71.6341 66.4828 71.7082Z" fill="white"/>
<path d="M74.2976 73.6928C73.5967 73.605 73.023 73.3737 72.5765 72.9989C72.1299 72.6242 71.8143 72.1457 71.6296 71.5636C71.4497 70.9777 71.4004 70.3252 71.4818 69.606C71.5819 68.8762 71.7955 68.2522 72.1224 67.7342C72.4499 67.2118 72.8757 66.8284 73.3998 66.584C73.9245 66.3353 74.5329 66.2543 75.2252 66.3411C75.9303 66.4294 76.5215 66.6781 76.9987 67.0873C77.4801 67.497 77.7802 68.0128 77.8988 68.6347L76.9329 68.815C76.8217 68.3775 76.602 68.0224 76.2737 67.7498C75.9502 67.4735 75.5606 67.3067 75.1048 67.2496C74.5931 67.1855 74.1548 67.2507 73.7898 67.4452C73.4253 67.6353 73.1353 67.9287 72.9196 68.3253C72.704 68.7219 72.5601 69.1909 72.4879 69.7321C72.392 70.5673 72.5014 71.2623 72.8163 71.8171C73.1316 72.3675 73.6634 72.6896 74.4115 72.7834C74.8845 72.8426 75.3 72.7855 75.658 72.612C76.0208 72.4347 76.3144 72.1483 76.5386 71.7528L77.4576 72.1562C77.1221 72.743 76.6844 73.1686 76.1447 73.4329C75.6055 73.6929 74.9898 73.7795 74.2976 73.6928Z" fill="white"/>
<path d="M79.292 74.1057L80.0253 67.1241L80.9821 67.2237L80.6322 70.5855L84.0983 67.5481L85.3654 67.6799L81.7307 70.8306L85.0653 74.7066L83.6818 74.5626L80.6053 70.8441L80.2553 74.206L79.292 74.1057Z" fill="white"/>
<path d="M89.4971 75.2937C88.8018 75.2355 88.2213 75.0281 87.7554 74.6717C87.2895 74.3153 86.9481 73.8475 86.7314 73.2684C86.5146 72.6893 86.4364 72.0392 86.4967 71.318C86.5582 70.5839 86.7459 69.9517 87.0599 69.4214C87.3739 68.8911 87.7898 68.4932 88.3078 68.2278C88.8304 67.9585 89.4328 67.8524 90.1151 67.9095C90.8147 67.968 91.3974 68.1755 91.8633 68.532C92.3339 68.8844 92.6754 69.35 92.8879 69.9288C93.105 70.5036 93.1834 71.1515 93.123 71.8727C93.0616 72.6068 92.8759 73.2413 92.5658 73.7763C92.2561 74.307 91.84 74.707 91.3174 74.9764C90.7948 75.2457 90.188 75.3515 89.4971 75.2937ZM89.5735 74.3803C90.3508 74.4454 90.9509 74.2369 91.374 73.7548C91.7973 73.2685 92.0435 72.6129 92.1126 71.7881C92.1834 70.9417 92.0476 70.252 91.7052 69.7189C91.3672 69.1862 90.8116 68.8875 90.0387 68.8228C89.5162 68.779 89.0744 68.8617 88.7134 69.0706C88.3571 69.2756 88.0771 69.5805 87.8737 69.9853C87.6749 70.3861 87.5527 70.8585 87.5072 71.4026C87.4367 72.2447 87.5745 72.9367 87.9204 73.4788C88.2668 74.0166 88.8178 74.3171 89.5735 74.3803Z" fill="white"/>
<path d="M98.232 75.8747C97.5487 75.831 96.966 75.6418 96.4837 75.307C96.0057 74.9725 95.6459 74.5218 95.4042 73.9549C95.1626 73.3879 95.0654 72.7348 95.1126 71.9953C95.1616 71.2298 95.3401 70.5769 95.6482 70.0364C95.9563 69.496 96.3665 69.0902 96.8789 68.819C97.3955 68.548 97.9912 68.4341 98.6658 68.4773C99.3577 68.5215 99.9378 68.7192 100.406 69.0705C100.874 69.4174 101.215 69.8951 101.428 70.5036C101.641 71.1121 101.711 71.8265 101.636 72.6468L100.663 72.5846L100.685 72.2472C100.726 71.338 100.573 70.64 100.226 70.1532C99.8837 69.6667 99.3536 69.4005 98.6358 69.3546C97.8833 69.3065 97.2904 69.514 96.8569 69.9769C96.4279 70.4402 96.1844 71.1237 96.1266 72.0275C96.0703 72.9097 96.2254 73.6079 96.592 74.122C96.9632 74.632 97.5164 74.9105 98.2516 74.9575C98.7532 74.9896 99.1973 74.9029 99.5839 74.6975C99.975 74.488 100.293 74.1718 100.537 73.7489L101.404 74.1495C101.088 74.7415 100.649 75.1889 100.087 75.4917C99.5292 75.7904 98.911 75.9181 98.232 75.8747ZM95.7723 72.2719L95.8233 71.474L101.175 71.8161L101.124 72.614L95.7723 72.2719Z" fill="white"/>
<path d="M106.993 76.2095L107.249 69.1941L108.211 69.2284L108.091 72.6062L111.342 69.3398L112.615 69.3851L109.203 72.7759L112.794 76.4159L111.404 76.3665L108.081 72.8661L107.961 76.2439L106.993 76.2095Z" fill="white"/>
<path d="M120.277 69.5271L120.145 76.5458L119.216 76.5283L119.319 71.0628L115.368 76.4557L114.562 76.4405L114.695 69.4218L115.624 69.4393L115.522 74.8593L119.478 69.512L120.277 69.5271Z" fill="white"/>
<path d="M122.845 76.5888L122.837 69.5688L123.792 69.5678L123.796 72.6163L127.754 72.6119L127.751 69.5634L128.706 69.5623L128.714 76.5823L127.759 76.5834L127.755 73.5284L123.797 73.5328L123.8 76.5878L122.845 76.5888Z" fill="white"/>
<path d="M133.575 76.7081C132.877 76.7213 132.279 76.5744 131.779 76.2674C131.279 75.9604 130.892 75.53 130.617 74.9761C130.342 74.4222 130.198 73.7834 130.184 73.0599C130.17 72.3234 130.292 71.6753 130.551 71.1156C130.809 70.556 131.182 70.1177 131.67 69.8008C132.162 69.4795 132.751 69.3123 133.435 69.2994C134.137 69.2862 134.738 69.433 135.238 69.74C135.742 70.0425 136.129 70.4708 136.4 71.0248C136.675 71.5744 136.819 72.211 136.832 72.9345C136.846 73.671 136.726 74.3212 136.473 74.8851C136.219 75.4447 135.846 75.8851 135.353 76.2065C134.861 76.5278 134.268 76.695 133.575 76.7081ZM133.558 75.7918C134.338 75.777 134.913 75.5083 135.285 74.9855C135.656 74.4584 135.834 73.7811 135.819 72.9536C135.803 72.1044 135.597 71.4322 135.202 70.9369C134.811 70.4415 134.228 70.2011 133.453 70.2157C132.928 70.2256 132.497 70.353 132.16 70.5977C131.826 70.838 131.579 71.1699 131.418 71.5934C131.261 72.0124 131.188 72.4949 131.198 73.0408C131.214 73.8856 131.422 74.56 131.821 75.0639C132.221 75.5634 132.8 75.8061 133.558 75.7918Z" fill="white"/>
<path d="M142.832 76.2577L142.512 69.245L145.401 69.1129C145.548 69.1062 145.726 69.1067 145.935 69.1145C146.148 69.1222 146.346 69.1456 146.53 69.1849C146.929 69.2708 147.254 69.4685 147.507 69.7779C147.764 70.0872 147.903 70.4669 147.924 70.9171C147.935 71.1682 147.906 71.395 147.838 71.5977C147.773 71.7959 147.675 71.9696 147.543 72.1187C147.481 72.1953 147.413 72.2635 147.337 72.3233C147.262 72.3788 147.188 72.4256 147.116 72.4636C147.256 72.4832 147.408 72.537 147.572 72.6249C147.83 72.7606 148.03 72.951 148.171 73.1962C148.312 73.437 148.391 73.7349 148.407 74.0898C148.429 74.5703 148.332 74.9673 148.117 75.2808C147.901 75.5943 147.603 75.8162 147.223 75.9463C147.052 76.0019 146.865 76.0408 146.662 76.0631C146.464 76.0852 146.276 76.1003 146.098 76.1084L142.832 76.2577ZM143.756 75.4021L146.016 75.2988C146.107 75.2946 146.221 75.2829 146.359 75.2636C146.497 75.2399 146.619 75.2126 146.726 75.1817C146.979 75.1051 147.159 74.9667 147.267 74.7666C147.379 74.5619 147.43 74.3427 147.419 74.109C147.405 73.8016 147.302 73.5547 147.112 73.3682C146.925 73.1772 146.681 73.0669 146.381 73.0373C146.28 73.0202 146.176 73.0119 146.067 73.0125C145.959 73.0132 145.861 73.0155 145.775 73.0194L143.652 73.1165L143.756 75.4021ZM143.614 72.2983L145.575 72.2087C145.688 72.2035 145.813 72.1913 145.951 72.172C146.093 72.1481 146.215 72.1144 146.317 72.0707C146.539 71.9825 146.697 71.8407 146.792 71.6455C146.892 71.4501 146.936 71.2398 146.926 71.0148C146.915 70.768 146.846 70.5542 146.721 70.3734C146.6 70.1925 146.423 70.0704 146.19 70.0073C146.032 69.9582 145.862 69.9334 145.679 69.9331C145.501 69.9325 145.389 69.9333 145.341 69.9355L143.51 70.0192L143.614 72.2983Z" fill="white"/>
<path d="M160.581 75.1841L159.635 75.2556L159.367 71.7102L156.263 71.9445L155.926 71.8917C155.225 71.81 154.669 71.5238 154.258 71.0334C153.847 70.5429 153.615 69.9455 153.562 69.2412C153.525 68.7529 153.58 68.3011 153.727 67.8859C153.874 67.4707 154.106 67.1185 154.423 66.8295C154.744 66.5358 155.144 66.334 155.622 66.224C155.742 66.1933 155.857 66.1715 155.969 66.1587C156.081 66.1416 156.182 66.1296 156.273 66.1227L159.877 65.8507L160.581 75.1841ZM154.929 75.6108L153.834 75.6935L155.543 71.3926L156.483 71.6736L154.929 75.6108ZM159.299 70.8027L158.999 66.836L156.368 67.0347C156.294 67.0402 156.204 67.0514 156.097 67.0682C155.993 67.0803 155.893 67.101 155.795 67.1301C155.48 67.2234 155.227 67.375 155.034 67.5852C154.846 67.7949 154.712 68.0397 154.633 68.3194C154.554 68.5948 154.525 68.8773 154.547 69.1668C154.569 69.4563 154.64 69.7313 154.759 69.9917C154.879 70.2521 155.048 70.4718 155.266 70.6509C155.488 70.8297 155.761 70.9416 156.086 70.9866C156.187 71.0007 156.29 71.0082 156.394 71.009C156.503 71.0095 156.594 71.0069 156.667 71.0014L159.299 70.8027Z" fill="white"/>
<path d="M165.75 74.9101C165.107 74.9723 164.548 74.8632 164.072 74.5827C163.596 74.2979 163.217 73.8884 162.935 73.3541C162.652 72.8155 162.477 72.199 162.409 71.5046C162.341 70.7973 162.394 70.1565 162.569 69.5823C162.748 69.0033 163.047 68.5325 163.465 68.1699C163.882 67.8073 164.419 67.5943 165.074 67.5308C165.713 67.469 166.276 67.5777 166.765 67.857C167.253 68.1362 167.645 68.5423 167.941 69.0753C168.24 69.6079 168.424 70.2214 168.491 70.9159C168.559 71.6146 168.496 72.2541 168.304 72.8343C168.113 73.4145 167.802 73.8908 167.372 74.2633C166.942 74.6314 166.401 74.8471 165.75 74.9101ZM162.887 78.1259L161.91 68.0331L162.764 67.9504L163.273 73.2103L163.377 73.2003L163.845 78.0332L162.887 78.1259ZM165.567 74.0331C166.054 73.986 166.448 73.8238 166.747 73.5466C167.047 73.2694 167.256 72.9118 167.375 72.4737C167.497 72.0308 167.533 71.5441 167.482 71.0136C167.431 70.4874 167.305 70.0206 167.105 69.6134C166.904 69.2062 166.628 68.8955 166.276 68.6814C165.929 68.4668 165.505 68.3838 165.005 68.4322C164.518 68.4794 164.124 68.6373 163.823 68.9058C163.527 69.1739 163.319 69.5271 163.201 69.9652C163.082 70.399 163.049 70.8898 163.102 71.4376C163.154 71.9767 163.28 72.4521 163.481 72.8637C163.682 73.2709 163.956 73.5796 164.302 73.7898C164.649 74.0001 165.071 74.0812 165.567 74.0331Z" fill="white"/>
<path d="M174.3 73.9898C173.607 74.0731 172.997 73.9872 172.469 73.7321C171.94 73.477 171.512 73.0877 171.183 72.5642C170.853 72.0408 170.646 71.4198 170.559 70.7013C170.471 69.9699 170.528 69.3128 170.728 68.7301C170.929 68.1473 171.256 67.6737 171.71 67.3093C172.167 66.94 172.736 66.7145 173.416 66.6328C174.113 66.549 174.725 66.6347 175.253 66.8898C175.785 67.1401 176.214 67.5272 176.539 68.0512C176.867 68.5704 177.075 69.1892 177.161 69.9077C177.249 70.6391 177.195 71.2981 177 71.8846C176.803 72.4669 176.476 72.9426 176.019 73.3119C175.561 73.6811 174.988 73.9071 174.3 73.9898ZM174.191 73.0799C174.965 72.9868 175.511 72.6615 175.828 72.104C176.144 71.5422 176.253 70.8504 176.155 70.0287C176.053 69.1854 175.781 68.5373 175.338 68.0842C174.899 67.6307 174.295 67.4502 173.525 67.5428C173.004 67.6053 172.588 67.7754 172.277 68.0529C171.969 68.3255 171.757 68.6806 171.639 69.1181C171.525 69.5508 171.501 70.0382 171.566 70.5803C171.667 71.4192 171.941 72.0693 172.39 72.5304C172.837 72.9872 173.438 73.1704 174.191 73.0799Z" fill="white"/>
<path d="M182.664 73.028C181.965 73.1284 181.351 73.0567 180.821 72.8132C180.292 72.5696 179.861 72.1915 179.529 71.6787C179.201 71.1611 178.981 70.5448 178.87 69.8297C178.774 69.0992 178.815 68.441 178.993 67.8551C179.171 67.2648 179.481 66.7826 179.922 66.4085C180.362 66.0301 180.928 65.7914 181.618 65.6922C182.322 65.5913 182.958 65.6751 183.526 65.9438C184.098 66.2119 184.524 66.6302 184.803 67.1987L183.919 67.6276C183.696 67.2349 183.39 66.9505 183.002 66.7742C182.617 66.5931 182.197 66.5351 181.742 66.6004C181.232 66.6736 180.826 66.8522 180.525 67.1361C180.224 67.4158 180.022 67.7753 179.918 68.2148C179.815 68.6543 179.8 69.1445 179.873 69.6856C180.001 70.5165 180.29 71.158 180.741 71.6099C181.19 72.0576 181.788 72.2279 182.534 72.1208C183.006 72.0531 183.392 71.8883 183.691 71.6264C183.994 71.3597 184.202 71.0059 184.314 70.5652L185.307 70.7117C185.138 71.3663 184.828 71.8923 184.377 72.2897C183.926 72.6828 183.355 72.9289 182.664 73.028Z" fill="white"/>
<path d="M186.572 72.1196L186.43 71.2931C186.695 71.2962 186.887 71.2523 187.008 71.1613C187.132 71.0653 187.212 70.9285 187.247 70.751C187.282 70.5692 187.3 70.3486 187.299 70.0893C187.296 69.659 187.279 69.1871 187.248 68.6736C187.217 68.1601 187.172 67.5965 187.111 66.9826C187.053 66.3638 186.985 65.683 186.906 64.9403L191.609 64.1358L192.793 71.0552L191.857 71.2153L190.828 65.1992L187.932 65.6946C187.98 66.1525 188.023 66.609 188.061 67.064C188.099 67.5191 188.132 67.9574 188.161 68.379C188.192 68.7957 188.214 69.181 188.226 69.535C188.239 69.889 188.241 70.1964 188.233 70.4572C188.221 70.8505 188.17 71.1713 188.081 71.4196C187.996 71.6671 187.835 71.8484 187.6 71.9634C187.365 72.0784 187.022 72.1305 186.572 72.1196Z" fill="white"/>
<path d="M196.978 70.4628C196.46 70.5669 196.005 70.561 195.615 70.4449C195.229 70.328 194.918 70.132 194.682 69.8569C194.445 69.5818 194.29 69.2615 194.217 68.8962C194.141 68.5223 194.152 68.1887 194.248 67.8955C194.347 67.5971 194.509 67.3369 194.734 67.1148C194.963 66.892 195.241 66.7013 195.567 66.543C195.898 66.388 196.268 66.2363 196.676 66.0881C197.087 65.9347 197.489 65.7941 197.884 65.6663C198.281 65.5333 198.628 65.4127 198.925 65.3045L198.634 65.575C198.51 64.8927 198.278 64.4158 197.936 64.1442C197.594 63.8725 197.081 63.8055 196.397 63.9429C195.925 64.0377 195.547 64.2242 195.263 64.5024C194.983 64.7797 194.823 65.161 194.783 65.6463L193.818 65.5618C193.852 64.9142 194.072 64.3726 194.48 63.9371C194.887 63.5016 195.471 63.2074 196.232 63.0546C196.86 62.9282 197.417 62.94 197.903 63.09C198.392 63.2348 198.772 63.5119 199.044 63.9213C199.17 64.1039 199.27 64.3158 199.345 64.5571C199.42 64.7984 199.483 65.0465 199.534 65.3014L200.393 69.5774L199.559 69.7452L199.212 68.0182L199.474 68.0715C199.359 68.709 199.087 69.2323 198.656 69.6415C198.226 70.0507 197.666 70.3244 196.978 70.4628ZM196.924 69.6317C197.361 69.5437 197.728 69.3883 198.023 69.1653C198.319 68.9424 198.539 68.6749 198.684 68.3629C198.828 68.0466 198.896 67.7104 198.886 67.3544C198.892 67.1232 198.871 66.8755 198.823 66.6112C198.773 66.3427 198.735 66.1426 198.709 66.0109L199.103 66.124C198.793 66.2305 198.455 66.3426 198.09 66.4602C197.728 66.577 197.373 66.6993 197.023 66.8271C196.677 66.9541 196.368 67.0848 196.094 67.2193C195.91 67.3139 195.736 67.4304 195.574 67.5691C195.411 67.7036 195.287 67.8656 195.201 68.0552C195.12 68.2439 195.104 68.4615 195.153 68.7079C195.194 68.9076 195.281 69.091 195.417 69.2583C195.556 69.4248 195.749 69.5474 195.994 69.6262C196.244 69.7041 196.554 69.706 196.924 69.6317Z" fill="white"/>
<path d="M202.952 69.0344L201.352 62.199L204.169 61.5401C204.312 61.5065 204.487 61.4745 204.694 61.444C204.904 61.4125 205.104 61.3992 205.292 61.4041C205.7 61.4156 206.056 61.5503 206.361 61.8082C206.67 62.0652 206.876 62.4131 206.979 62.8519C207.036 63.0966 207.05 63.3249 207.019 63.5367C206.992 63.7434 206.927 63.9321 206.824 64.103C206.778 64.1895 206.723 64.2691 206.66 64.3417C206.596 64.4101 206.532 64.4696 206.468 64.5201C206.609 64.5138 206.768 64.5389 206.946 64.5952C207.225 64.6814 207.456 64.832 207.639 65.0471C207.822 65.258 207.954 65.5365 208.035 65.8825C208.145 66.3508 208.122 66.7588 207.968 67.1065C207.813 67.4542 207.561 67.7268 207.211 67.9244C207.053 68.0103 206.877 68.0827 206.681 68.1418C206.49 68.1999 206.308 68.2491 206.135 68.2896L202.952 69.0344ZM203.703 68.0241L205.906 67.5088C205.994 67.4881 206.105 67.4556 206.237 67.4114C206.368 67.3629 206.483 67.3137 206.583 67.2637C206.817 67.1421 206.969 66.9731 207.038 66.7566C207.111 66.5348 207.121 66.3101 207.067 66.0822C206.997 65.7826 206.851 65.5586 206.63 65.4102C206.411 65.2566 206.152 65.1928 205.851 65.2187C205.749 65.2203 205.644 65.2313 205.538 65.2518C205.431 65.2722 205.336 65.2923 205.252 65.3121L203.182 65.7963L203.703 68.0241ZM202.995 64.9988L204.907 64.5516C205.016 64.526 205.137 64.491 205.269 64.4468C205.405 64.3973 205.519 64.3417 205.611 64.2801C205.813 64.1528 205.942 63.9845 206 63.7751C206.062 63.5648 206.068 63.3499 206.016 63.1305C205.96 62.89 205.854 62.6924 205.697 62.5376C205.545 62.3818 205.349 62.2942 205.108 62.2748C204.944 62.2555 204.772 62.2624 204.593 62.2954C204.418 62.3274 204.307 62.3489 204.26 62.3597L202.476 62.7773L202.995 64.9988Z" fill="white"/>
<path d="M209.234 67.5782L209.014 66.7693C209.277 66.7469 209.464 66.6845 209.576 66.5822C209.69 66.4746 209.756 66.3308 209.775 66.1506C209.792 65.9663 209.787 65.7451 209.762 65.487C209.717 65.0591 209.654 64.5911 209.574 64.083C209.494 63.5748 209.394 63.0183 209.273 62.4132C209.156 61.8029 209.022 61.1319 208.872 60.4003L213.475 59.1441L215.323 65.9163L214.408 66.1662L212.801 60.2781L209.966 61.0517C210.058 61.5028 210.145 61.953 210.227 62.4022C210.309 62.8514 210.385 63.2845 210.454 63.7014C210.526 64.113 210.585 64.4944 210.631 64.8455C210.678 65.1967 210.709 65.5024 210.727 65.7628C210.753 66.1554 210.734 66.4796 210.669 66.7354C210.608 66.99 210.466 67.186 210.243 67.3232C210.02 67.4605 209.684 67.5455 209.234 67.5782Z" fill="white"/>
<path d="M221.224 64.3009C220.573 64.514 219.962 64.5546 219.39 64.4228C218.822 64.2896 218.32 64.0046 217.885 63.5679C217.451 63.1312 217.118 62.5608 216.887 61.8566C216.649 61.1277 216.572 60.4551 216.657 59.8389C216.743 59.2227 216.973 58.6936 217.348 58.2516C217.727 57.8082 218.238 57.4814 218.881 57.271C219.54 57.0552 220.152 57.0235 220.717 57.1759C221.281 57.3241 221.774 57.6412 222.198 58.1272C222.622 58.6132 222.951 59.2508 223.187 60.0399L222.26 60.3434L222.155 60.0222C221.855 59.1627 221.454 58.5714 220.952 58.248C220.453 57.9234 219.862 57.873 219.179 58.0968C218.462 58.3315 217.988 58.7442 217.758 59.335C217.531 59.9244 217.559 60.6494 217.841 61.5101C218.116 62.3502 218.519 62.9409 219.05 63.2822C219.584 63.618 220.201 63.6713 220.902 63.4421C221.379 63.2856 221.759 63.0403 222.042 62.7061C222.328 62.3663 222.505 61.9548 222.575 61.4715L223.528 61.5217C223.455 62.1887 223.213 62.7671 222.804 63.2568C222.397 63.7412 221.87 64.0892 221.224 64.3009ZM217.603 61.8686L217.354 61.1088L222.45 59.44L222.699 60.1998L217.603 61.8686Z" fill="white"/>
</svg>
